<svg width="502" height="204" viewBox="0 0 502 204" fill="none" xmlns="http://www.w3.org/2000/svg">
<g clip-path="url(#clip0_15_131)">
<path d="M34 112.42V103.895L42.195 102.52V82.5H99.34V101.42L82.73 104.225L101.595 121H81.74L66.065 107.03L56.55 108.625V121H42.195V111.045L34 112.42ZM56.55 99.99L84.985 95.205V90.31H56.55V99.99ZM104.321 121L117.741 90.31H110.921V82.5H149.146L165.866 121H151.016L146.836 111.375H123.406L119.226 121H104.321ZM126.816 103.565H143.426L137.596 90.31H132.646L126.816 103.565ZM165.86 113.41V104.775L174.055 103.4V82.5H231.2V102.41L188.41 109.615V121H174.055V112.035L165.86 113.41ZM188.41 100.98L216.845 96.195V90.31H188.41V100.98ZM234.503 90.31V82.5H257.053V121H242.698V90.31H234.503Z" fill="black"/>
<path d="M262.54 90.31V82.5H310.28L327.825 91.85V121H270.735V90.31H262.54ZM285.145 113.19H313.525V94.05L306.485 90.31H285.145V113.19ZM332.794 90.31V82.5H398.189V96.69L383.834 94.71V90.31H355.399V97.845H378.774V105.655H355.399V113.19H383.834V108.79L398.189 106.81V121H341.044V90.31H332.794ZM403.664 90.31V82.5H422.364L435.564 94.325L448.214 82.5H466.089L445.464 101.75L458.114 113.19H466.364V121H447.664L434.464 109.175L421.814 121H403.939L424.564 101.75L411.914 90.31H403.664Z" fill="#0C3BE1" fill-opacity="0.88"/>
<path d="M34 104L42 102.5L42.5 107L42 111L34 112.5V104Z" fill="#E91C59" fill-opacity="0.8"/>
<path d="M166 105L174 103.5L175 107.5L174.5 112L170.5 112.6L166 113.5V105Z" fill="#E91C59" fill-opacity="0.8"/>
<rect x="458" y="114" width="8.4" height="7.02" fill="#E91C59" fill-opacity="0.8"/>
<rect x="458" y="113.2" width="8.4" height="0.75" fill="#E91C59" fill-opacity="0.8"/>
</g>
<defs>
<clipPath id="clip0_15_131">
<rect width="502" height="204" fill="white"/>
</clipPath>
</defs>
</svg>